<?xml version="1.0" encoding="UTF-8"?>
<svg id="Layer_2" data-name="Layer 2" xmlns="http://www.w3.org/2000/svg" viewBox="0 0 391.29 210.28">
  <defs>
    <style>
      .cls-1 {
        fill: #8dc641;
      }

      .cls-2 {
        fill: #071c27;
      }
    </style>
  </defs>
  <g id="Layer_1-2" data-name="Layer 1">
    <g>
      <path class="cls-2" d="M248.08,8.79C243.01,2.93,237.05,0,230.22,0c-6.44,0-12.25,2.49-17.43,7.47-5.17,4.98-7.76,10.79-7.76,17.43,0,5.86,2.15,11.23,6.44,16.11l55.94,65.02-54.76,63.55c-4.1,4.88-6.15,10.15-6.15,15.81,0,6.64,2.59,12.45,7.76,17.43,5.17,4.98,11.08,7.47,17.72,7.47,6.84,0,12.59-2.93,17.28-8.79l49.2-58.57,49.5,58.57c5.08,5.86,11.03,8.79,17.86,8.79,6.64,0,12.55-2.49,17.72-7.47,5.18-4.98,7.76-10.79,7.76-17.43,0-5.47-2.14-10.74-6.44-15.81L248.08,8.79Z"/>
      <circle class="cls-1" cx="366.5" cy="24.79" r="24.79"/>
      <path class="cls-2" d="M129.85,122.83c0,14.82-3.32,26.22-9.95,34.22-6.63,8-16.19,11.99-28.66,11.99s-22.03-3.99-28.66-11.99c-6.63-7.99-9.95-19.4-9.95-34.22V26.32c0-7.99-2.39-14.38-7.17-19.16C40.7,2.39,34.31,0,26.32,0S11.94,2.39,7.17,7.17C2.39,11.95,0,18.33,0,26.32V120.78c0,29.25,7.75,51.48,23.25,66.68,15.5,15.21,38.17,22.81,68,22.81s52.3-7.65,68-22.96c15.69-15.3,23.54-37.48,23.54-66.54v-18.71l-52.93-61.61V122.83Z"/>
    </g>
  </g>
</svg>